<?xml version="1.0" encoding="UTF-8"?>
<svg width="65px" height="64px" viewBox="0 0 65 64" version="1.1" xmlns="http://www.w3.org/2000/svg" xmlns:xlink="http://www.w3.org/1999/xlink">
    <!-- Generator: Sketch 50.2 (55047) - http://www.bohemiancoding.com/sketch -->
    <title>noun_683006_cc</title>
    <desc>Created with Sketch.</desc>
    <defs></defs>
    <g id="Landing-Pages" stroke="none" stroke-width="1" fill="none" fill-rule="evenodd">
        <g id="Landing-Page---What-We-Do---Tablet" transform="translate(-469.000000, -1823.000000)" fill="#0033AB" fill-rule="nonzero">
            <g id="Group-4" transform="translate(215.000000, 1823.000000)">
                <g id="Group-11-Copy" transform="translate(254.000000, 0.000000)">
                    <g id="noun_683006_cc">
                        <path d="M64.8776342,63.4637036 C64.7020335,63.7929086 64.3592543,63.9989929 63.9856343,63.9999881 L1.01854667,63.9999881 C0.644868772,64.0017947 0.300502492,63.7982203 0.122455641,63.470258 C-0.0555912102,63.1422957 -0.0384374675,62.7431446 0.167092168,62.4316089 L21.4534547,30.1837098 L21.4534547,6.91098685 L16.8920913,6.91098685 C16.3322754,6.91098685 15.878455,6.45796281 15.878455,5.89912934 C15.878455,5.34029586 16.3322754,4.88727182 16.8920913,4.88727182 L22.467091,4.88727182 C23.0269069,4.88727182 23.4807273,5.34029586 23.4807273,5.89912934 L23.4807273,30.4771485 C23.4821845,30.6744736 23.4258108,30.8679179 23.3185455,31.0336701 L2.89377384,61.976273 L62.1104071,61.976273 L41.9694536,31.4282945 L28.2549543,31.4282945 C27.6951384,31.4282945 27.241318,30.9752705 27.241318,30.416437 C27.241318,29.8576035 27.6951384,29.4045795 28.2549543,29.4045795 L42.5168172,29.4045795 C42.8594919,29.4029281 43.1798024,29.5742219 43.3682717,29.8599154 L64.8370888,62.4316089 C65.0387315,62.7423296 65.0542821,63.138174 64.8776342,63.4637036 Z M42.3242263,26.176754 C42.8840422,26.176754 43.3378626,25.72373 43.3378626,25.1648965 L43.3378626,6.95146116 L48.1526351,6.95146116 C48.712451,6.95146116 49.1662714,6.49843711 49.1662714,5.93960364 C49.1662714,5.38077016 48.712451,4.92774612 48.1526351,4.92774612 L42.3242263,4.92774612 C41.7644104,4.92774612 41.31059,5.38077016 41.31059,5.93960364 L41.31059,25.1648965 C41.31059,25.72373 41.7644104,26.176754 42.3242263,26.176754 Z M26.6128635,20.5508262 C26.6128635,18.1422539 28.5688296,16.1897203 30.981636,16.1897203 C33.3944424,16.1897203 35.3504085,18.1422539 35.3504085,20.5508262 C35.3504085,22.9593985 33.3944424,24.9119321 30.981636,24.9119321 C28.5711419,24.9063685 26.6184369,22.9570902 26.6128635,20.5508262 Z M28.6401361,20.5508262 C28.6401361,21.8417315 29.6884613,22.8882171 30.981636,22.8882171 C32.2748107,22.8882171 33.3231359,21.8417315 33.3231359,20.5508262 C33.3231359,19.2599209 32.2748107,18.2134353 30.981636,18.2134353 C29.6907681,18.2189778 28.6456883,19.2622236 28.6401361,20.5508262 Z M30.6674087,4.36110591 C30.6674087,1.95253362 32.6233748,0 35.0361812,0 C37.4489877,0 39.4049537,1.95253362 39.4049537,4.36110591 C39.4049537,6.76967819 37.4489877,8.72221181 35.0361812,8.72221181 C32.6256872,8.71664818 30.6729822,6.76736989 30.6674087,4.36110591 Z M32.6946814,4.36110591 C32.6946814,5.65201124 33.7430066,6.69849678 35.0361812,6.69849678 C36.3293559,6.69849678 37.3776811,5.65201124 37.3776811,4.36110591 C37.3776811,3.07020058 36.3293559,2.02371504 35.0361812,2.02371504 C33.7453134,2.02925749 32.7002336,3.07250332 32.6946814,4.36110591 Z M37.0634539,53.2439426 C34.6506474,53.2439426 32.6946814,51.291409 32.6946814,48.8828367 C32.6946814,46.4742645 34.6506474,44.5217308 37.0634539,44.5217308 C39.4762603,44.5217308 41.4322264,46.4742645 41.4322264,48.8828367 C41.4266529,51.2891007 39.4739479,53.238379 37.0634539,53.2439426 Z M37.0634539,51.2202276 C38.3566285,51.2202276 39.4049537,50.1737421 39.4049537,48.8828367 C39.4049537,47.5919314 38.3566285,46.5454459 37.0634539,46.5454459 C35.7702792,46.5454459 34.721954,47.5919314 34.721954,48.8828367 C34.7275062,50.1714393 35.772586,51.2146852 37.0634539,51.2202276 Z" id="Shape"></path>
                    </g>
                </g>
            </g>
        </g>
    </g>
</svg>