<?xml version="1.0" encoding="UTF-8"?>
<svg width="60px" height="59px" viewBox="0 0 60 59" version="1.1" xmlns="http://www.w3.org/2000/svg" xmlns:xlink="http://www.w3.org/1999/xlink">
    <!-- Generator: Sketch 50.2 (55047) - http://www.bohemiancoding.com/sketch -->
    <title>Shape</title>
    <desc>Created with Sketch.</desc>
    <defs></defs>
    <g id="Landing-Pages" stroke="none" stroke-width="1" fill="none" fill-rule="evenodd">
        <g id="Landing-Page---What-We-Do---Tablet" transform="translate(-216.000000, -2143.000000)" fill="#0033AB" fill-rule="nonzero">
            <g id="Group-4" transform="translate(215.000000, 1823.000000)">
                <g id="Group-9" transform="translate(1.000000, 320.000000)">
                    <path d="M34.9152,51.8490627 L40.56,51.8490627 L40.56,0.953458306 C40.56,0.426877824 40.9898066,0 41.52,0 L49.44,0 C49.9701934,0 50.4,0.426877824 50.4,0.953458306 L50.4,52.802521 C50.4,53.3291015 49.9701934,53.7559793 49.44,53.7559793 C48.9098066,53.7559793 48.48,53.3291015 48.48,52.802521 L48.48,1.90691661 L42.48,1.90691661 L42.48,52.802521 C42.48,53.3291015 42.0501934,53.7559793 41.52,53.7559793 L34.1952,53.7559793 L34.08,53.7559793 L33.9648,53.7559793 C33.4346066,53.7559793 33.0048,53.3291015 33.0048,52.802521 L33.0048,24.1987718 L27.0048,24.1987718 L27.0048,52.802521 C27.0048,53.3291015 26.5749934,53.7559793 26.0448,53.7559793 L18.72,53.7559793 L18.6048,53.7559793 L18.4896,53.7559793 C17.9594066,53.7559793 17.5296,53.3291015 17.5296,52.802521 L17.5296,36.4697802 L11.52,36.4697802 L11.52,52.802521 C11.52,53.3291015 11.0901934,53.7559793 10.56,53.7559793 C10.0298066,53.7559793 9.6,53.3291015 9.6,52.802521 L9.6,35.5163219 C9.6,34.9897414 10.0298066,34.5628636 10.56,34.5628636 L18.48,34.5628636 C19.0101934,34.5628636 19.44,34.9897414 19.44,35.5163219 L19.44,51.8490627 L25.0848,51.8490627 L25.0848,23.2453135 C25.0848,22.718733 25.5146066,22.2918552 26.0448,22.2918552 L33.9552,22.2918552 C34.4853934,22.2918552 34.9152,22.718733 34.9152,23.2453135 L34.9152,51.8490627 Z M59.04,10.8503555 L54,10.8503555 C53.4698066,10.8503555 53.04,11.2772334 53.04,11.8038138 C53.04,12.3303943 53.4698066,12.7572721 54,12.7572721 L58.0416,12.7572721 L58.0416,57.0930834 L1.92,57.0930834 L1.92,12.7572721 L37.1232,12.7572721 C37.6533934,12.7572721 38.0832,12.3303943 38.0832,11.8038138 C38.0832,11.2772334 37.6533934,10.8503555 37.1232,10.8503555 L0.96,10.8503555 C0.42980664,10.8503555 0,11.2772334 0,11.8038138 L0,58.0465417 C0,58.5731222 0.42980664,59 0.96,59 L59.04,59 C59.5701934,59 60,58.5731222 60,58.0465417 L60,11.8038138 C60,11.2772334 59.5701934,10.8503555 59.04,10.8503555 Z" id="Shape"></path>
                </g>
            </g>
        </g>
    </g>
</svg>