<?xml version="1.0" encoding="UTF-8"?>
<svg width="60px" height="56px" viewBox="0 0 60 56" version="1.1" xmlns="http://www.w3.org/2000/svg" xmlns:xlink="http://www.w3.org/1999/xlink">
    <!-- Generator: Sketch 50.2 (55047) - http://www.bohemiancoding.com/sketch -->
    <title>Shape</title>
    <desc>Created with Sketch.</desc>
    <defs></defs>
    <g id="Landing-Pages" stroke="none" stroke-width="1" fill="none" fill-rule="evenodd">
        <g id="Landing-Page---What-We-Do---Tablet" transform="translate(-216.000000, -2828.000000)" fill="#0033AB" fill-rule="nonzero">
            <g id="Group-4" transform="translate(215.000000, 1823.000000)">
                <g id="Group-15" transform="translate(1.000000, 1005.000000)">
                    <path d="M59.8305456,34.8032117 L44.1600794,10.3169311 L48.1357347,6.31698616 C48.5107847,5.93739289 48.5107847,5.32433556 48.1357347,4.94474229 L43.5023067,0.283006024 C43.1250185,-0.0943353414 42.5156839,-0.0943353414 42.1383957,0.283006024 L37.7758153,4.63331106 L6.13501581,4.63331106 C5.65894673,3.15215443 4.18247884,2.23971048 2.65413506,2.4821579 C1.12579127,2.72460531 0,4.04985624 0,5.60653366 C0,7.16321107 1.12579127,8.48846201 2.65413506,8.73090942 C4.18247884,8.97335683 5.65894673,8.06091289 6.13501581,6.57975626 L25.7908105,6.57975626 C21.8890643,7.92529871 18.3475406,10.1564368 15.4405643,13.1003477 C7.53761927,21.1099697 6.46390214,32.1755107 6.32847836,35.3871453 C3.2182743,35.8943526 1.01671021,38.7197908 1.26958965,41.8796101 C1.52246908,45.0394295 4.14499537,47.4740652 7.29579109,47.4740652 C10.4465868,47.4740652 13.0691131,45.0394295 13.3219925,41.8796101 C13.574872,38.7197908 11.3733079,35.8943526 8.26310382,35.3871453 C8.42754699,32.3214941 9.52061038,21.8496189 16.8044753,14.4628593 C21.873194,9.324244 28.9345769,6.67707852 37.7854884,6.59922071 L41.47095,10.3071988 L25.8004837,34.8032117 C25.652747,35.0335539 25.6084181,35.3159025 25.6783948,35.5808448 C25.7483715,35.8457871 25.9261636,36.0687499 26.1680625,36.19492 C34.8738771,40.671744 33.9065644,48.4964537 33.9065644,48.8468139 C33.8670923,49.127587 33.9512979,49.4117174 34.1371577,49.6248921 C34.3230175,49.8380668 34.592045,49.9590823 34.8738771,49.9562876 L50.7958447,49.9562876 C51.0757436,49.9586788 51.342949,49.8389673 51.5284494,49.6280711 C51.7139498,49.417175 51.7995557,49.1357741 51.7631574,48.8565461 C51.7631574,48.5256504 50.7958447,40.7009407 59.5016593,36.2046523 C59.7399594,36.0717479 59.9114991,35.843893 59.9741093,35.5771001 C60.0367195,35.3103073 59.9845937,35.0293198 59.8305456,34.8032117 Z M11.3778508,41.3919287 C11.3778508,43.6762867 9.53725801,45.5281248 7.26677171,45.5281248 C4.99628541,45.5281248 3.15569259,43.6762867 3.15569259,41.3919287 C3.15569259,39.1075707 4.99628541,37.2557327 7.26677171,37.2557327 C9.53725801,37.2557327 11.3778508,39.1075707 11.3778508,41.3919287 Z M39.5459976,5.60653366 L42.8155147,2.31704126 L46.0850317,5.60653366 L42.8155147,8.91549051 L39.5459976,5.60653366 Z M50.4476121,43.6595374 C50.0096893,45.0544302 49.7846466,46.5080969 49.7801663,47.9709135 L35.850863,47.9709135 C35.8463827,46.5080969 35.62134,45.0544302 35.1834172,43.6595374 C33.9739334,39.9427067 31.399751,36.8306379 27.9866105,34.9589273 L41.8482019,13.3144567 L41.8482019,30.6864801 C41.8482019,31.2239761 42.2812826,31.6597027 42.8155147,31.6597027 C43.3497467,31.6597027 43.7828274,31.2239761 43.7828274,30.6864801 L43.7828274,13.3144567 L57.6444189,34.9589273 C54.2312783,36.8306379 51.6570959,39.9427067 50.4476121,43.6595374 Z M52.9722984,55.0267774 C52.9722984,55.5642734 52.5392177,56 52.0049856,56 L33.6260437,56 C33.0918116,56 32.658731,55.5642734 32.658731,55.0267774 C32.658731,54.4892814 33.0918116,54.0535548 33.6260437,54.0535548 L52.0049856,54.0535548 C52.5354628,54.0535281 52.9669936,54.4833537 52.9722984,55.0170452 L52.9722984,55.0267774 Z" id="Shape"></path>
                </g>
            </g>
        </g>
    </g>
</svg>