<?xml version="1.0" encoding="UTF-8"?>
<svg width="50px" height="66px" viewBox="0 0 50 66" version="1.1" xmlns="http://www.w3.org/2000/svg" xmlns:xlink="http://www.w3.org/1999/xlink">
    <!-- Generator: Sketch 50.2 (55047) - http://www.bohemiancoding.com/sketch -->
    <title>noun_683006_cc</title>
    <desc>Created with Sketch.</desc>
    <defs></defs>
    <g id="Landing-Pages" stroke="none" stroke-width="1" fill="none" fill-rule="evenodd">
        <g id="Landing-Page---What-We-Do---Tablet" transform="translate(-218.000000, -1823.000000)" fill="#0033AB" fill-rule="nonzero">
            <g id="Group-4" transform="translate(215.000000, 1823.000000)">
                <g id="Group-11" transform="translate(3.000000, 0.000000)">
                    <g id="noun_683006_cc">
                        <path d="M25,51.2926889 C25.5938546,51.2926889 26.0752688,50.811 26.0752688,50.2168066 L26.0752688,45.4829244 C28.1357326,44.9419515 29.4743071,42.9542673 29.2017343,40.8403543 C28.9291615,38.7264414 27.1302181,37.1437778 25,37.1437778 C22.8697819,37.1437778 21.0708385,38.7264414 20.7982657,40.8403543 C20.5256929,42.9542673 21.8642674,44.9419515 23.9247312,45.4829244 L23.9247312,50.2168066 C23.9247312,50.811 24.4061454,51.2926889 25,51.2926889 Z M22.9139785,41.4053305 C22.9258266,40.255471 23.8649513,39.3318026 25.0141893,39.3396855 C26.1634272,39.3475685 27.0898073,40.2840329 27.0858986,41.4339469 C27.0819899,42.5838609 26.1492649,43.5139987 25,43.5140598 C24.4467527,43.5140598 23.916165,43.2941578 23.52496,42.9027297 C23.1337551,42.5113016 22.9139785,41.9804111 22.9139785,41.4268482 L22.9139785,41.4053305 Z M50,27.4188605 L50,40.9857364 C50,54.8007327 38.8071187,66 25,66 C11.1928813,66 0,54.8007327 0,40.9857364 L0,26.3644959 C0,25.7703025 0.481414247,25.2886136 1.07526882,25.2886136 L8.95698925,25.2886136 C9.55084382,25.2886136 10.0322581,25.7703025 10.0322581,26.3644959 C10.0322581,26.9586893 9.55084382,27.4403782 8.95698925,27.4403782 L2.15053763,27.4403782 L2.15053763,40.9857364 C2.15053763,53.6123459 12.3805904,63.8482354 25,63.8482354 C37.6194096,63.8482354 47.8494624,53.6123459 47.8494624,40.9857364 L47.8494624,28.5162605 L36.0215054,28.5162605 C35.4276508,28.5162605 34.9462366,28.0345716 34.9462366,27.4403782 L34.9462366,11.9261554 C34.9462364,6.52790852 30.572588,2.1517649 25.1774194,2.1517649 C19.7822507,2.1517649 15.4086023,6.52790852 15.4086022,11.9261554 L15.4086022,25.1164724 L29.9247312,25.1164724 C30.5185858,25.1164724 31,25.5981613 31,26.1923547 C31,26.7865481 30.5185858,27.268237 29.9247312,27.268237 L14.3333333,27.268237 C13.7394788,27.268237 13.2580645,26.7865481 13.2580645,26.1923547 L13.2580645,11.9261554 C13.2580645,5.33952163 18.5945414,0 25.1774194,0 C31.7602973,0 37.0967742,5.33952163 37.0967742,11.9261554 L37.0967742,26.3644959 L48.9247312,26.3644959 C49.5185858,26.3644959 50,26.8461848 50,27.4403782 L50,27.4188605 Z" id="Shape"></path>
                    </g>
                </g>
            </g>
        </g>
    </g>
</svg>