<?xml version="1.0" encoding="UTF-8"?>
<svg width="61px" height="60px" viewBox="0 0 61 60" version="1.1" xmlns="http://www.w3.org/2000/svg" xmlns:xlink="http://www.w3.org/1999/xlink">
    <!-- Generator: Sketch 49.3 (51167) - http://www.bohemiancoding.com/sketch -->
    <title>Group 35</title>
    <desc>Created with Sketch.</desc>
    <defs></defs>
    <g id="Landing-Pages" stroke="none" stroke-width="1" fill="none" fill-rule="evenodd">
        <g id="Landing-Page---What-We-Do" transform="translate(-303.000000, -2716.000000)">
            <g id="Group-16" transform="translate(87.000000, 1914.000000)">
                <g id="Core-Disciplines" transform="translate(215.000000, 300.000000)">
                    <g id="Group-6">
                        <g id="Group-12" transform="translate(0.000000, 502.000000)">
                            <g id="Group-35" transform="translate(1.000000, 0.000000)">
                                <path d="M12.2366,6.3754 C12.2366,9.4124 9.7326,11.8754 6.6436,11.8754 C3.5536,11.8754 1.0496,9.4124 1.0496,6.3754 C1.0496,3.3374 3.5536,0.8754 6.6436,0.8754 C9.7326,0.8754 12.2366,3.3374 12.2366,6.3754 Z" id="Stroke-1" stroke="#0033AB" stroke-width="1.75" stroke-linecap="round" stroke-linejoin="round"></path>
                                <path d="M36.0022,29.6616 C36.0022,32.6986 33.4982,35.1616 30.4092,35.1616 C27.3202,35.1616 24.8152,32.6986 24.8152,29.6616 C24.8152,26.6246 27.3202,24.1616 30.4092,24.1616 C33.4982,24.1616 36.0022,26.6246 36.0022,29.6616 Z" id="Stroke-3" stroke="#0033AB" stroke-width="1.75" stroke-linecap="round" stroke-linejoin="round"></path>
                                <path d="M59.7678,29.6616 C59.7678,32.6986 57.2638,35.1616 54.1748,35.1616 C51.0858,35.1616 48.5808,32.6986 48.5808,29.6616 C48.5808,26.6246 51.0858,24.1616 54.1748,24.1616 C57.2638,24.1616 59.7678,26.6246 59.7678,29.6616 Z" id="Stroke-5" stroke="#0033AB" stroke-width="1.75" stroke-linecap="round" stroke-linejoin="round"></path>
                                <path d="M12.0618,53.1176 C12.0618,56.1546 9.5568,58.6176 6.4678,58.6176 C3.3788,58.6176 0.8748,56.1546 0.8748,53.1176 C0.8748,50.0796 3.3788,47.6176 6.4678,47.6176 C9.5568,47.6176 12.0618,50.0796 12.0618,53.1176 Z" id="Stroke-7" stroke="#0033AB" stroke-width="1.75" stroke-linecap="round" stroke-linejoin="round"></path>
                                <path d="M59.7678,53.1176 C59.7678,56.1546 57.2638,58.6176 54.1748,58.6176 C51.0858,58.6176 48.5808,56.1546 48.5808,53.1176 C48.5808,50.0796 51.0858,47.6176 54.1748,47.6176 C57.2638,47.6176 59.7678,50.0796 59.7678,53.1176 Z" id="Stroke-9" stroke="#0033AB" stroke-width="1.75" stroke-linecap="round" stroke-linejoin="round"></path>
                                <path d="M59.7678,6.3754 C59.7678,9.4124 57.2638,11.8754 54.1748,11.8754 C51.0858,11.8754 48.5808,9.4124 48.5808,6.3754 C48.5808,3.3374 51.0858,0.8754 54.1748,0.8754 C57.2638,0.8754 59.7678,3.3374 59.7678,6.3754" id="Fill-11" fill="#0033AB"></path>
                                <path d="M59.7678,6.3754 C59.7678,9.4124 57.2638,11.8754 54.1748,11.8754 C51.0858,11.8754 48.5808,9.4124 48.5808,6.3754 C48.5808,3.3374 51.0858,0.8754 54.1748,0.8754 C57.2638,0.8754 59.7678,3.3374 59.7678,6.3754 Z" id="Stroke-13" stroke="#0033AB"></path>
                                <path d="M36.0022,6.3754 C36.0022,9.4124 33.4982,11.8754 30.4092,11.8754 C27.3202,11.8754 24.8152,9.4124 24.8152,6.3754 C24.8152,3.3374 27.3202,0.8754 30.4092,0.8754 C33.4982,0.8754 36.0022,3.3374 36.0022,6.3754" id="Fill-15" fill="#0033AB"></path>
                                <path d="M36.0022,6.3754 C36.0022,9.4124 33.4982,11.8754 30.4092,11.8754 C27.3202,11.8754 24.8152,9.4124 24.8152,6.3754 C24.8152,3.3374 27.3202,0.8754 30.4092,0.8754 C33.4982,0.8754 36.0022,3.3374 36.0022,6.3754 Z" id="Stroke-17" stroke="#0033AB"></path>
                                <path d="M35.9143,53.1176 C35.9143,56.1546 33.4103,58.6176 30.3213,58.6176 C27.2323,58.6176 24.7283,56.1546 24.7283,53.1176 C24.7283,50.0796 27.2323,47.6176 30.3213,47.6176 C33.4103,47.6176 35.9143,50.0796 35.9143,53.1176" id="Fill-19" fill="#0033AB"></path>
                                <path d="M35.9143,53.1176 C35.9143,56.1546 33.4103,58.6176 30.3213,58.6176 C27.2323,58.6176 24.7283,56.1546 24.7283,53.1176 C24.7283,50.0796 27.2323,47.6176 30.3213,47.6176 C33.4103,47.6176 35.9143,50.0796 35.9143,53.1176 Z" id="Stroke-21" stroke="#0033AB"></path>
                                <path d="M12.2366,29.9155 C12.2366,32.9525 9.7326,35.4155 6.6436,35.4155 C3.5536,35.4155 1.0496,32.9525 1.0496,29.9155 C1.0496,26.8775 3.5536,24.4155 6.6436,24.4155 C9.7326,24.4155 12.2366,26.8775 12.2366,29.9155" id="Fill-23" fill="#0033AB"></path>
                                <path d="M12.2366,29.9155 C12.2366,32.9525 9.7326,35.4155 6.6436,35.4155 C3.5536,35.4155 1.0496,32.9525 1.0496,29.9155 C1.0496,26.8775 3.5536,24.4155 6.6436,24.4155 C9.7326,24.4155 12.2366,26.8775 12.2366,29.9155 Z" id="Stroke-25" stroke="#0033AB"></path>
                                <path d="M10.925,9.9106 L25.842,25.0376" id="Stroke-27" stroke="#0033AB" stroke-width="1.75" stroke-linecap="round" stroke-linejoin="round"></path>
                                <path d="M36.4045,29.9155 L47.8215,29.9155" id="Stroke-29" stroke="#0033AB" stroke-width="1.75" stroke-linecap="round" stroke-linejoin="round"></path>
                                <path d="M54.175,35.1616 L54.175,47.6176" id="Stroke-31" stroke="#0033AB" stroke-width="1.75" stroke-linecap="round" stroke-linejoin="round"></path>
                                <path d="M25.9495,34.3862 L10.6445,49.4682" id="Stroke-33" stroke="#0033AB" stroke-width="1.75" stroke-linecap="round" stroke-linejoin="round"></path>
                            </g>
                        </g>
                    </g>
                </g>
            </g>
        </g>
    </g>
</svg>