<?xml version="1.0" encoding="UTF-8"?>
<svg width="61px" height="62px" viewBox="0 0 61 62" version="1.1" xmlns="http://www.w3.org/2000/svg" xmlns:xlink="http://www.w3.org/1999/xlink">
    <!-- Generator: Sketch 50.2 (55047) - http://www.bohemiancoding.com/sketch -->
    <title>Group 46</title>
    <desc>Created with Sketch.</desc>
    <defs></defs>
    <g id="Landing-Pages" stroke="none" stroke-width="1" fill="none" fill-rule="evenodd">
        <g id="Landing-Page---What-We-Do" transform="translate(-587.000000, -2716.000000)" stroke="#0033AB" stroke-width="1.75">
            <g id="Group-46" transform="translate(587.000000, 2716.000000)">
                <path d="M20.375,0.9294 L20.375,60.6794" id="Stroke-1" stroke-linecap="round" stroke-linejoin="round"></path>
                <path d="M59.875,42.9294 C59.875,52.8294 51.775,60.9294 41.875,60.9294 L18.875,60.9294 C8.975,60.9294 0.875,52.8294 0.875,42.9294 L0.875,18.9294 C0.875,9.0294 8.975,0.9294 18.875,0.9294 L20.375,0.9294" id="Stroke-3" stroke-linecap="round" stroke-linejoin="round"></path>
                <path d="M40.375,41.6794 L40.375,60.6794" id="Stroke-5"></path>
                <path d="M1.375,20.6794 L41.375,20.6794" id="Stroke-7" stroke-linecap="round" stroke-linejoin="round"></path>
                <path d="M1.375,41.6794 L59.875,41.6794" id="Stroke-9" stroke-linecap="round"></path>
                <path d="M38.6709,9.4635 C40.6679,10.2485 42.5199,11.3025 44.1859,12.5745" id="Stroke-11" stroke-linecap="round"></path>
                <path d="M14.375,14.6794 L46.375,46.6794" id="Stroke-13" stroke-linecap="round"></path>
                <path d="M14.375,46.6794 L41.375,20.6794" id="Stroke-15" stroke-linecap="round"></path>
                <path d="M30.1109,53.9479 C17.4089,53.9479 7.1109,43.6509 7.1109,30.9479 C7.1109,18.2459 17.4089,7.9479 30.1109,7.9479" id="Stroke-17" stroke-linecap="round"></path>
                <path d="M51.2637,39.9889 C49.5847,43.9269 46.7877,47.4419 42.9747,50.0129 C32.4437,57.1169 18.1487,54.3389 11.0457,43.8069 C3.9427,33.2759 6.7217,18.9809 17.2517,11.8779" id="Stroke-19" stroke-linecap="round"></path>
                <path d="M53.0235,28.8669 C53.1695,30.4829 53.1415,32.1039 52.9485,33.7029" id="Stroke-21" stroke-linecap="round"></path>
                <path d="M49.1817,18.0846 C50.2557,19.6786 51.1047,21.3576 51.7347,23.0866" id="Stroke-23" stroke-linecap="round"></path>
                <path d="M59.875,41.6794 L59.875,42.8744 C59.875,52.7754 51.775,60.8744 41.875,60.8744 L40.375,60.8744" id="Stroke-25" stroke-linecap="round" stroke-linejoin="round"></path>
                <path d="M0.875,40.8747 L0.875,18.8747 C0.875,8.9757 8.975,0.8747 18.875,0.8747 L20.375,0.8747" id="Stroke-27" stroke-linecap="round" stroke-linejoin="round"></path>
                <path d="M40.375,34.9919 L40.375,28.8669" id="Stroke-29" stroke-linecap="round" stroke-linejoin="round"></path>
                <path d="M59.875,37.9919 L59.875,42.9289 C59.875,52.8299 51.775,60.9289 41.875,60.9289 L40.375,60.9289" id="Stroke-31" stroke-linecap="round" stroke-linejoin="round"></path>
                <g id="Group-35" transform="translate(59.000000, 25.804400)" stroke-linecap="round" stroke-linejoin="round">
                    <path d="M0.875,0.6875 L0.875,6.7495" id="Stroke-33"></path>
                </g>
                <path d="M59.0098,13.4264 C59.5718,15.1624 59.8748,17.0124 59.8748,18.9294 L59.8748,20.2414" id="Stroke-36" stroke-linecap="round" stroke-linejoin="round"></path>
                <path d="M52.5332,4.3483 C54.1062,5.5463 55.4792,6.9973 56.5892,8.6393" id="Stroke-38" stroke-linecap="round" stroke-linejoin="round"></path>
                <path d="M39.375,0.9294 L41.875,0.9294 C43.521,0.9294 45.119,1.1544 46.637,1.5734" id="Stroke-40" stroke-linecap="round" stroke-linejoin="round"></path>
                <path d="M26.0415,0.9294 L33.3745,0.9294" id="Stroke-42" stroke-linecap="round" stroke-linejoin="round"></path>
                <path d="M0.875,18.9294 C0.875,9.0294 8.975,0.9294 18.875,0.9294 L20.375,0.9294" id="Stroke-44" stroke-linecap="round" stroke-linejoin="round"></path>
            </g>
        </g>
    </g>
</svg>